<svg width="137" height="46" viewBox="0 0 137 46" fill="none" xmlns="http://www.w3.org/2000/svg">
<path d="M1.376 20C1.178 20 1.016 19.937 0.89 19.811C0.764 19.685 0.701 19.523 0.701 19.325V1.505C0.701 1.307 0.764 1.145 0.89 1.019C1.016 0.892999 1.178 0.829999 1.376 0.829999H4.292C4.472 0.829999 4.625 0.892999 4.751 1.019C4.877 1.145 4.94 1.307 4.94 1.505V7.58C5.426 7.004 6.02 6.545 6.722 6.203C7.424 5.861 8.27 5.69 9.26 5.69C10.322 5.69 11.258 5.933 12.068 6.419C12.896 6.887 13.544 7.58 14.012 8.498C14.48 9.398 14.714 10.496 14.714 11.792V19.325C14.714 19.523 14.651 19.685 14.525 19.811C14.399 19.937 14.237 20 14.039 20H11.096C10.916 20 10.763 19.937 10.637 19.811C10.511 19.685 10.448 19.523 10.448 19.325V11.954C10.448 11 10.214 10.262 9.746 9.74C9.278 9.2 8.612 8.93 7.748 8.93C6.902 8.93 6.218 9.2 5.696 9.74C5.192 10.262 4.94 11 4.94 11.954V19.325C4.94 19.523 4.877 19.685 4.751 19.811C4.625 19.937 4.472 20 4.292 20H1.376ZM20.7261 20.27C19.7721 20.27 18.9171 20.09 18.1611 19.73C17.4051 19.352 16.8021 18.848 16.3521 18.218C15.9021 17.588 15.6771 16.886 15.6771 16.112C15.6771 14.834 16.1901 13.826 17.2161 13.088C18.2601 12.35 19.6281 11.846 21.3201 11.576L24.8571 11.063V10.577C24.8571 9.875 24.6951 9.335 24.3711 8.957C24.0471 8.579 23.4801 8.39 22.6701 8.39C22.0761 8.39 21.5991 8.507 21.2391 8.741C20.8791 8.975 20.6001 9.281 20.4021 9.659C20.2581 9.893 20.0511 10.01 19.7811 10.01H17.2161C17.0181 10.01 16.8651 9.956 16.7571 9.848C16.6491 9.722 16.6041 9.578 16.6221 9.416C16.6221 9.11 16.7391 8.75 16.9731 8.336C17.2071 7.922 17.5671 7.517 18.0531 7.121C18.5391 6.707 19.1601 6.365 19.9161 6.095C20.6721 5.825 21.5991 5.69 22.6971 5.69C23.8311 5.69 24.8031 5.825 25.6131 6.095C26.4231 6.365 27.0711 6.743 27.5571 7.229C28.0431 7.715 28.4031 8.282 28.6371 8.93C28.8711 9.56 28.9881 10.244 28.9881 10.982V19.325C28.9881 19.523 28.9251 19.685 28.7991 19.811C28.6731 19.937 28.5111 20 28.3131 20H25.6671C25.4871 20 25.3341 19.937 25.2081 19.811C25.0821 19.685 25.0191 19.523 25.0191 19.325V18.326C24.7851 18.668 24.4701 18.992 24.0741 19.298C23.6781 19.586 23.2011 19.82 22.6431 20C22.1031 20.18 21.4641 20.27 20.7261 20.27ZM21.8061 17.462C22.4001 17.462 22.9311 17.336 23.3991 17.084C23.8671 16.832 24.2361 16.445 24.5061 15.923C24.7761 15.401 24.9111 14.744 24.9111 13.952V13.493L22.4001 13.898C21.4281 14.06 20.7171 14.303 20.2671 14.627C19.8171 14.951 19.5921 15.347 19.5921 15.815C19.5921 16.157 19.6911 16.454 19.8891 16.706C20.1051 16.958 20.3841 17.147 20.7261 17.273C21.0681 17.399 21.4281 17.462 21.8061 17.462ZM31.5552 20C31.3752 20 31.2222 19.937 31.0962 19.811C30.9702 19.685 30.9072 19.523 30.9072 19.325V6.635C30.9072 6.437 30.9702 6.275 31.0962 6.149C31.2222 6.023 31.3752 5.96 31.5552 5.96H34.0662C34.2462 5.96 34.3992 6.023 34.5252 6.149C34.6692 6.275 34.7412 6.437 34.7412 6.635V7.553C35.1012 7.049 35.5962 6.617 36.2262 6.257C36.8742 5.897 37.6392 5.708 38.5213 5.69C40.6092 5.654 42.0402 6.446 42.8142 8.066C43.2282 7.364 43.8222 6.797 44.5963 6.365C45.3883 5.915 46.2522 5.69 47.1882 5.69C48.1243 5.69 48.9703 5.906 49.7263 6.338C50.4823 6.752 51.0763 7.4 51.5083 8.282C51.9582 9.146 52.1832 10.262 52.1832 11.63V19.325C52.1832 19.523 52.1202 19.685 51.9943 19.811C51.8682 19.937 51.7152 20 51.5352 20H48.8623C48.6823 20 48.5293 19.937 48.4032 19.811C48.2773 19.685 48.2143 19.523 48.2143 19.325V11.846C48.2143 11.108 48.1063 10.532 47.8903 10.118C47.6742 9.686 47.3862 9.38 47.0262 9.2C46.6843 9.02 46.2973 8.93 45.8653 8.93C45.4872 8.93 45.1182 9.02 44.7583 9.2C44.4163 9.38 44.1283 9.686 43.8943 10.118C43.6782 10.532 43.5702 11.108 43.5702 11.846V19.325C43.5702 19.523 43.5072 19.685 43.3813 19.811C43.2552 19.937 43.0932 20 42.8953 20H40.2492C40.0512 20 39.8893 19.937 39.7633 19.811C39.6372 19.685 39.5742 19.523 39.5742 19.325V11.846C39.5742 11.108 39.4662 10.532 39.2502 10.118C39.0342 9.686 38.7462 9.38 38.3862 9.2C38.0442 9.02 37.6662 8.93 37.2522 8.93C36.8742 8.93 36.5052 9.029 36.1452 9.227C35.7852 9.407 35.4882 9.704 35.2542 10.118C35.0382 10.532 34.9302 11.099 34.9302 11.819V19.325C34.9302 19.523 34.8672 19.685 34.7412 19.811C34.6152 19.937 34.4622 20 34.2822 20H31.5552ZM54.1051 20C53.9251 20 53.7721 19.937 53.6461 19.811C53.5201 19.685 53.4571 19.523 53.4571 19.325V17.516C53.4571 17.336 53.4931 17.174 53.5651 17.03C53.6551 16.886 53.7541 16.751 53.8621 16.625L60.4771 9.092H54.3481C54.1501 9.092 53.9881 9.029 53.8621 8.903C53.7361 8.777 53.6731 8.624 53.6731 8.444V6.635C53.6731 6.437 53.7361 6.275 53.8621 6.149C53.9881 6.023 54.1501 5.96 54.3481 5.96H64.8781C65.0761 5.96 65.2381 6.023 65.3641 6.149C65.4901 6.275 65.5531 6.437 65.5531 6.635V8.579C65.5531 8.741 65.5171 8.885 65.4451 9.011C65.3731 9.137 65.2831 9.263 65.1751 9.389L58.6951 16.868H65.4451C65.6251 16.868 65.7781 16.931 65.9041 17.057C66.0301 17.183 66.0931 17.336 66.0931 17.516V19.325C66.0931 19.523 66.0301 19.685 65.9041 19.811C65.7781 19.937 65.6251 20 65.4451 20H54.1051ZM71.4935 20.27C70.5395 20.27 69.6845 20.09 68.9285 19.73C68.1725 19.352 67.5695 18.848 67.1195 18.218C66.6695 17.588 66.4445 16.886 66.4445 16.112C66.4445 14.834 66.9575 13.826 67.9835 13.088C69.0275 12.35 70.3955 11.846 72.0875 11.576L75.6245 11.063V10.577C75.6245 9.875 75.4625 9.335 75.1385 8.957C74.8145 8.579 74.2475 8.39 73.4375 8.39C72.8435 8.39 72.3665 8.507 72.0065 8.741C71.6465 8.975 71.3675 9.281 71.1695 9.659C71.0255 9.893 70.8185 10.01 70.5485 10.01H67.9835C67.7855 10.01 67.6325 9.956 67.5245 9.848C67.4165 9.722 67.3715 9.578 67.3895 9.416C67.3895 9.11 67.5065 8.75 67.7405 8.336C67.9745 7.922 68.3345 7.517 68.8205 7.121C69.3065 6.707 69.9275 6.365 70.6835 6.095C71.4395 5.825 72.3665 5.69 73.4645 5.69C74.5985 5.69 75.5705 5.825 76.3805 6.095C77.1905 6.365 77.8385 6.743 78.3245 7.229C78.8105 7.715 79.1705 8.282 79.4045 8.93C79.6385 9.56 79.7555 10.244 79.7555 10.982V19.325C79.7555 19.523 79.6925 19.685 79.5665 19.811C79.4405 19.937 79.2785 20 79.0805 20H76.4345C76.2545 20 76.1015 19.937 75.9755 19.811C75.8495 19.685 75.7865 19.523 75.7865 19.325V18.326C75.5525 18.668 75.2375 18.992 74.8415 19.298C74.4455 19.586 73.9685 19.82 73.4105 20C72.8705 20.18 72.2315 20.27 71.4935 20.27ZM72.5735 17.462C73.1675 17.462 73.6985 17.336 74.1665 17.084C74.6345 16.832 75.0035 16.445 75.2735 15.923C75.5435 15.401 75.6785 14.744 75.6785 13.952V13.493L73.1675 13.898C72.1955 14.06 71.4845 14.303 71.0345 14.627C70.5845 14.951 70.3595 15.347 70.3595 15.815C70.3595 16.157 70.4585 16.454 70.6565 16.706C70.8725 16.958 71.1515 17.147 71.4935 17.273C71.8355 17.399 72.1955 17.462 72.5735 17.462ZM8.855 40.27C7.829 40.27 6.974 40.099 6.29 39.757C5.606 39.397 5.048 38.947 4.616 38.407V39.325C4.616 39.523 4.553 39.685 4.427 39.811C4.301 39.937 4.139 40 3.941 40H1.376C1.178 40 1.016 39.937 0.89 39.811C0.764 39.685 0.701 39.523 0.701 39.325V21.505C0.701 21.307 0.764 21.145 0.89 21.019C1.016 20.893 1.178 20.83 1.376 20.83H4.157C4.337 20.83 4.49 20.893 4.616 21.019C4.742 21.145 4.805 21.307 4.805 21.505V27.391C5.255 26.887 5.813 26.482 6.479 26.176C7.145 25.852 7.937 25.69 8.855 25.69C9.791 25.69 10.601 25.852 11.285 26.176C11.987 26.482 12.581 26.923 13.067 27.499C13.553 28.057 13.922 28.723 14.174 29.497C14.444 30.271 14.588 31.126 14.606 32.062C14.624 32.386 14.633 32.692 14.633 32.98C14.633 33.25 14.624 33.556 14.606 33.898C14.57 34.852 14.417 35.725 14.147 36.517C13.895 37.291 13.526 37.966 13.04 38.542C12.572 39.1 11.987 39.532 11.285 39.838C10.601 40.126 9.791 40.27 8.855 40.27ZM7.64 37.03C8.324 37.03 8.864 36.886 9.26 36.598C9.656 36.292 9.935 35.896 10.097 35.41C10.277 34.924 10.385 34.393 10.421 33.817C10.457 33.259 10.457 32.701 10.421 32.143C10.385 31.567 10.277 31.036 10.097 30.55C9.935 30.064 9.656 29.677 9.26 29.389C8.864 29.083 8.324 28.93 7.64 28.93C6.992 28.93 6.461 29.074 6.047 29.362C5.651 29.65 5.345 30.019 5.129 30.469C4.931 30.901 4.823 31.369 4.805 31.873C4.787 32.197 4.778 32.53 4.778 32.872C4.778 33.214 4.787 33.556 4.805 33.898C4.841 34.438 4.949 34.942 5.129 35.41C5.309 35.878 5.606 36.265 6.02 36.571C6.434 36.877 6.974 37.03 7.64 37.03ZM22.0329 40.27C20.5389 40.27 19.2879 40.027 18.2799 39.541C17.2719 39.037 16.4979 38.326 15.9579 37.408C15.4359 36.49 15.1479 35.419 15.0939 34.195C15.0759 33.835 15.0669 33.43 15.0669 32.98C15.0669 32.512 15.0759 32.107 15.0939 31.765C15.1479 30.523 15.4539 29.452 16.0119 28.552C16.5699 27.634 17.3529 26.932 18.3609 26.446C19.3689 25.942 20.5929 25.69 22.0329 25.69C23.4549 25.69 24.6699 25.942 25.6779 26.446C26.6859 26.932 27.4689 27.634 28.0269 28.552C28.5849 29.452 28.8909 30.523 28.9449 31.765C28.9809 32.107 28.9989 32.512 28.9989 32.98C28.9989 33.43 28.9809 33.835 28.9449 34.195C28.8909 35.419 28.5939 36.49 28.0539 37.408C27.5319 38.326 26.7669 39.037 25.7589 39.541C24.7509 40.027 23.5089 40.27 22.0329 40.27ZM22.0329 37.3C22.9149 37.3 23.5809 37.03 24.0309 36.49C24.4809 35.932 24.7239 35.122 24.7599 34.06C24.7779 33.79 24.7869 33.43 24.7869 32.98C24.7869 32.53 24.7779 32.17 24.7599 31.9C24.7239 30.856 24.4809 30.055 24.0309 29.497C23.5809 28.939 22.9149 28.66 22.0329 28.66C21.1509 28.66 20.4759 28.939 20.0079 29.497C19.5579 30.055 19.3149 30.856 19.2789 31.9C19.2609 32.17 19.2519 32.53 19.2519 32.98C19.2519 33.43 19.2609 33.79 19.2789 34.06C19.3149 35.122 19.5579 35.932 20.0079 36.49C20.4759 37.03 21.1509 37.3 22.0329 37.3ZM35.0897 40.27C34.0457 40.27 33.1187 40.036 32.3087 39.568C31.5167 39.082 30.8957 38.389 30.4457 37.489C30.0137 36.571 29.7977 35.464 29.7977 34.168V26.635C29.7977 26.437 29.8607 26.275 29.9867 26.149C30.1127 26.023 30.2657 25.96 30.4457 25.96H33.3077C33.5057 25.96 33.6677 26.023 33.7937 26.149C33.9197 26.275 33.9827 26.437 33.9827 26.635V34.006C33.9827 36.022 34.8647 37.03 36.6287 37.03C37.4747 37.03 38.1407 36.769 38.6267 36.247C39.1307 35.707 39.3827 34.96 39.3827 34.006V26.635C39.3827 26.437 39.4457 26.275 39.5717 26.149C39.6977 26.023 39.8597 25.96 40.0577 25.96H42.9197C43.0997 25.96 43.2527 26.023 43.3787 26.149C43.5047 26.275 43.5677 26.437 43.5677 26.635V39.325C43.5677 39.523 43.5047 39.685 43.3787 39.811C43.2527 39.937 43.0997 40 42.9197 40H40.2737C40.0757 40 39.9137 39.937 39.7877 39.811C39.6617 39.685 39.5987 39.523 39.5987 39.325V38.272C39.1307 38.92 38.5277 39.415 37.7897 39.757C37.0517 40.099 36.1517 40.27 35.0897 40.27ZM47.6409 45.13C47.4969 45.13 47.3619 45.076 47.2359 44.968C47.1279 44.86 47.0739 44.725 47.0739 44.563C47.0739 44.527 47.0829 44.473 47.1009 44.401C47.1189 44.347 47.1459 44.275 47.1819 44.185L49.2879 39.136L44.1039 26.905C44.0499 26.761 44.0229 26.644 44.0229 26.554C44.0409 26.392 44.1039 26.257 44.2119 26.149C44.3199 26.023 44.4549 25.96 44.6169 25.96H47.2359C47.4699 25.96 47.6409 26.023 47.7489 26.149C47.8569 26.257 47.9379 26.374 47.9919 26.5L51.3399 34.87L54.7689 26.5C54.8409 26.356 54.9309 26.23 55.0389 26.122C55.1469 26.014 55.3179 25.96 55.5519 25.96H58.1169C58.2789 25.96 58.4139 26.023 58.5219 26.149C58.6479 26.257 58.7109 26.383 58.7109 26.527C58.7109 26.617 58.6749 26.743 58.6029 26.905L50.9619 44.59C50.9079 44.734 50.8179 44.86 50.6919 44.968C50.5839 45.076 50.4129 45.13 50.1789 45.13H47.6409ZM64.8785 40.27C63.3845 40.27 62.1335 40.027 61.1255 39.541C60.1175 39.037 59.3435 38.326 58.8035 37.408C58.2815 36.49 57.9935 35.419 57.9395 34.195C57.9215 33.835 57.9125 33.43 57.9125 32.98C57.9125 32.512 57.9215 32.107 57.9395 31.765C57.9935 30.523 58.2995 29.452 58.8575 28.552C59.4155 27.634 60.1985 26.932 61.2065 26.446C62.2145 25.942 63.4385 25.69 64.8785 25.69C66.3005 25.69 67.5155 25.942 68.5235 26.446C69.5315 26.932 70.3145 27.634 70.8725 28.552C71.4305 29.452 71.7365 30.523 71.7905 31.765C71.8265 32.107 71.8445 32.512 71.8445 32.98C71.8445 33.43 71.8265 33.835 71.7905 34.195C71.7365 35.419 71.4395 36.49 70.8995 37.408C70.3775 38.326 69.6125 39.037 68.6045 39.541C67.5965 40.027 66.3545 40.27 64.8785 40.27ZM64.8785 37.3C65.7605 37.3 66.4265 37.03 66.8765 36.49C67.3265 35.932 67.5695 35.122 67.6055 34.06C67.6235 33.79 67.6325 33.43 67.6325 32.98C67.6325 32.53 67.6235 32.17 67.6055 31.9C67.5695 30.856 67.3265 30.055 66.8765 29.497C66.4265 28.939 65.7605 28.66 64.8785 28.66C63.9965 28.66 63.3215 28.939 62.8535 29.497C62.4035 30.055 62.1605 30.856 62.1245 31.9C62.1065 32.17 62.0975 32.53 62.0975 32.98C62.0975 33.43 62.1065 33.79 62.1245 34.06C62.1605 35.122 62.4035 35.932 62.8535 36.49C63.3215 37.03 63.9965 37.3 64.8785 37.3ZM77.9353 40.27C76.8913 40.27 75.9643 40.036 75.1543 39.568C74.3623 39.082 73.7413 38.389 73.2913 37.489C72.8593 36.571 72.6433 35.464 72.6433 34.168V26.635C72.6433 26.437 72.7063 26.275 72.8323 26.149C72.9583 26.023 73.1113 25.96 73.2913 25.96H76.1533C76.3513 25.96 76.5133 26.023 76.6393 26.149C76.7653 26.275 76.8283 26.437 76.8283 26.635V34.006C76.8283 36.022 77.7103 37.03 79.4743 37.03C80.3203 37.03 80.9863 36.769 81.4723 36.247C81.9763 35.707 82.2283 34.96 82.2283 34.006V26.635C82.2283 26.437 82.2913 26.275 82.4173 26.149C82.5433 26.023 82.7053 25.96 82.9033 25.96H85.7653C85.9453 25.96 86.0983 26.023 86.2243 26.149C86.3503 26.275 86.4133 26.437 86.4133 26.635V39.325C86.4133 39.523 86.3503 39.685 86.2243 39.811C86.0983 39.937 85.9453 40 85.7653 40H83.1193C82.9213 40 82.7593 39.937 82.6333 39.811C82.5073 39.685 82.4443 39.523 82.4443 39.325V38.272C81.9763 38.92 81.3733 39.415 80.6353 39.757C79.8973 40.099 78.9973 40.27 77.9353 40.27ZM93.4566 40.27C92.3406 40.27 91.3776 40.144 90.5676 39.892C89.7756 39.622 89.1276 39.298 88.6236 38.92C88.1376 38.542 87.7686 38.164 87.5166 37.786C87.2826 37.39 87.1566 37.057 87.1386 36.787C87.1206 36.589 87.1836 36.427 87.3276 36.301C87.4716 36.175 87.6156 36.112 87.7596 36.112H90.3786C90.4326 36.112 90.4866 36.121 90.5406 36.139C90.5946 36.157 90.6486 36.202 90.7026 36.274C90.9366 36.436 91.1796 36.625 91.4316 36.841C91.6836 37.039 91.9716 37.21 92.2956 37.354C92.6376 37.498 93.0606 37.57 93.5646 37.57C94.1586 37.57 94.6626 37.453 95.0766 37.219C95.4906 36.967 95.6976 36.616 95.6976 36.166C95.6976 35.842 95.5986 35.572 95.4006 35.356C95.2206 35.14 94.8696 34.942 94.3476 34.762C93.8256 34.582 93.0516 34.384 92.0256 34.168C91.0536 33.952 90.2256 33.664 89.5416 33.304C88.8576 32.944 88.3446 32.494 88.0026 31.954C87.6606 31.396 87.4896 30.73 87.4896 29.956C87.4896 29.254 87.7056 28.579 88.1376 27.931C88.5876 27.283 89.2446 26.752 90.1086 26.338C90.9726 25.906 92.0526 25.69 93.3486 25.69C94.3386 25.69 95.2026 25.816 95.9406 26.068C96.6966 26.302 97.3266 26.608 97.8306 26.986C98.3346 27.346 98.7126 27.724 98.9646 28.12C99.2346 28.498 99.3786 28.831 99.3966 29.119C99.4146 29.299 99.3606 29.452 99.2346 29.578C99.1086 29.704 98.9646 29.767 98.8026 29.767H96.3996C96.3096 29.767 96.2286 29.758 96.1566 29.74C96.0846 29.704 96.0216 29.659 95.9676 29.605C95.7516 29.461 95.5266 29.299 95.2926 29.119C95.0766 28.921 94.8156 28.75 94.5096 28.606C94.2036 28.462 93.8076 28.39 93.3216 28.39C92.7276 28.39 92.2686 28.525 91.9446 28.795C91.6386 29.047 91.4856 29.371 91.4856 29.767C91.4856 30.019 91.5666 30.253 91.7286 30.469C91.8906 30.685 92.2236 30.883 92.7276 31.063C93.2316 31.243 93.9966 31.432 95.0226 31.63C96.2466 31.846 97.2186 32.17 97.9386 32.602C98.6586 33.034 99.1716 33.538 99.4776 34.114C99.8016 34.672 99.9636 35.275 99.9636 35.923C99.9636 36.769 99.7116 37.525 99.2076 38.191C98.7036 38.839 97.9656 39.352 96.9936 39.73C96.0396 40.09 94.8606 40.27 93.4566 40.27ZM106.2 40.27C105.084 40.27 104.121 40.144 103.311 39.892C102.519 39.622 101.871 39.298 101.367 38.92C100.881 38.542 100.512 38.164 100.26 37.786C100.026 37.39 99.9003 37.057 99.8823 36.787C99.8643 36.589 99.9273 36.427 100.071 36.301C100.215 36.175 100.359 36.112 100.503 36.112H103.122C103.176 36.112 103.23 36.121 103.284 36.139C103.338 36.157 103.392 36.202 103.446 36.274C103.68 36.436 103.923 36.625 104.175 36.841C104.427 37.039 104.715 37.21 105.039 37.354C105.381 37.498 105.804 37.57 106.308 37.57C106.902 37.57 107.406 37.453 107.82 37.219C108.234 36.967 108.441 36.616 108.441 36.166C108.441 35.842 108.342 35.572 108.144 35.356C107.964 35.14 107.613 34.942 107.091 34.762C106.569 34.582 105.795 34.384 104.769 34.168C103.797 33.952 102.969 33.664 102.285 33.304C101.601 32.944 101.088 32.494 100.746 31.954C100.404 31.396 100.233 30.73 100.233 29.956C100.233 29.254 100.449 28.579 100.881 27.931C101.331 27.283 101.988 26.752 102.852 26.338C103.716 25.906 104.796 25.69 106.092 25.69C107.082 25.69 107.946 25.816 108.684 26.068C109.44 26.302 110.07 26.608 110.574 26.986C111.078 27.346 111.456 27.724 111.708 28.12C111.978 28.498 112.122 28.831 112.14 29.119C112.158 29.299 112.104 29.452 111.978 29.578C111.852 29.704 111.708 29.767 111.546 29.767H109.143C109.053 29.767 108.972 29.758 108.9 29.74C108.828 29.704 108.765 29.659 108.711 29.605C108.495 29.461 108.27 29.299 108.036 29.119C107.82 28.921 107.559 28.75 107.253 28.606C106.947 28.462 106.551 28.39 106.065 28.39C105.471 28.39 105.012 28.525 104.688 28.795C104.382 29.047 104.229 29.371 104.229 29.767C104.229 30.019 104.31 30.253 104.472 30.469C104.634 30.685 104.967 30.883 105.471 31.063C105.975 31.243 106.74 31.432 107.766 31.63C108.99 31.846 109.962 32.17 110.682 32.602C111.402 33.034 111.915 33.538 112.221 34.114C112.545 34.672 112.707 35.275 112.707 35.923C112.707 36.769 112.455 37.525 111.951 38.191C111.447 38.839 110.709 39.352 109.737 39.73C108.783 40.09 107.604 40.27 106.2 40.27ZM119.673 40.27C117.603 40.27 115.956 39.694 114.732 38.542C113.526 37.39 112.887 35.716 112.815 33.52C112.815 33.376 112.815 33.187 112.815 32.953C112.815 32.701 112.815 32.503 112.815 32.359C112.887 30.973 113.202 29.785 113.76 28.795C114.318 27.787 115.101 27.022 116.109 26.5C117.117 25.96 118.296 25.69 119.646 25.69C121.158 25.69 122.418 26.005 123.426 26.635C124.452 27.247 125.217 28.093 125.721 29.173C126.243 30.235 126.504 31.459 126.504 32.845V33.466C126.504 33.646 126.432 33.799 126.288 33.925C126.162 34.051 126.009 34.114 125.829 34.114H117C117 34.132 117 34.168 117 34.222C117 34.258 117 34.294 117 34.33C117.018 34.906 117.126 35.437 117.324 35.923C117.54 36.391 117.837 36.769 118.215 37.057C118.611 37.345 119.079 37.489 119.619 37.489C120.069 37.489 120.438 37.426 120.726 37.3C121.014 37.174 121.248 37.021 121.428 36.841C121.626 36.661 121.77 36.508 121.86 36.382C122.022 36.202 122.148 36.094 122.238 36.058C122.346 36.004 122.508 35.977 122.724 35.977H125.532C125.712 35.977 125.856 36.031 125.964 36.139C126.09 36.229 126.144 36.364 126.126 36.544C126.108 36.832 125.955 37.192 125.667 37.624C125.397 38.038 124.992 38.452 124.452 38.866C123.912 39.262 123.237 39.595 122.427 39.865C121.635 40.135 120.717 40.27 119.673 40.27ZM117 31.657H122.292V31.603C122.292 30.955 122.184 30.397 121.968 29.929C121.77 29.443 121.473 29.065 121.077 28.795C120.681 28.525 120.204 28.39 119.646 28.39C119.088 28.39 118.611 28.525 118.215 28.795C117.819 29.065 117.513 29.443 117.297 29.929C117.099 30.397 117 30.955 117 31.603V31.657ZM129.422 40C129.224 40 129.062 39.937 128.936 39.811C128.81 39.685 128.747 39.523 128.747 39.325V29.146H126.641C126.443 29.146 126.281 29.083 126.155 28.957C126.029 28.831 125.966 28.669 125.966 28.471V26.635C125.966 26.437 126.029 26.275 126.155 26.149C126.281 26.023 126.443 25.96 126.641 25.96H128.747V24.988C128.747 23.836 128.963 22.891 129.395 22.153C129.827 21.415 130.457 20.875 131.285 20.533C132.113 20.191 133.13 20.02 134.336 20.02H136.307C136.505 20.02 136.667 20.083 136.793 20.209C136.919 20.335 136.982 20.497 136.982 20.695V22.531C136.982 22.729 136.919 22.891 136.793 23.017C136.667 23.143 136.505 23.206 136.307 23.206H134.498C133.832 23.206 133.364 23.368 133.094 23.692C132.842 24.016 132.716 24.493 132.716 25.123V25.96H136.037C136.235 25.96 136.397 26.023 136.523 26.149C136.649 26.275 136.712 26.437 136.712 26.635V28.471C136.712 28.669 136.649 28.831 136.523 28.957C136.397 29.083 136.235 29.146 136.037 29.146H132.716V39.325C132.716 39.523 132.653 39.685 132.527 39.811C132.401 39.937 132.248 40 132.068 40H129.422Z" fill="white"/>
</svg>
